<svg width="100" height="100" viewBox="0 0 100 100" fill="none" xmlns="http://www.w3.org/2000/svg">
<path d="M60.1499 28.6C60.0843 30.6623 59.6438 32.6955 58.8499 34.6C58.3925 35.7847 57.8232 36.9232 57.1499 38C55.3099 41 52.7699 43.24 49.9799 43.24C49.207 43.2364 48.4437 43.0695 47.7399 42.75C45.7496 41.7239 44.1023 40.139 42.9999 38.19C42.276 37.0404 41.6696 35.821 41.1899 34.55C40.4514 32.6506 40.0487 30.6373 39.9999 28.6C39.9698 28.1972 39.9698 27.7928 39.9999 27.39L40.1199 27.07C40.1199 27.07 49.7399 26.85 53.1199 21.65C53.5699 21.77 54.0499 21.89 54.5299 22.03C54.9851 23.1527 55.7002 24.1513 56.6163 24.944C57.5324 25.7367 58.6235 26.3008 59.7999 26.59L59.9799 27.05C59.9902 27.1731 59.9902 27.2969 59.9799 27.42C60.0675 27.8083 60.1243 28.2028 60.1499 28.6Z" stroke="currentColor" stroke-width="2" stroke-linecap="round" stroke-linejoin="round"/>
<path d="M41.18 34.55C40.8906 34.7654 40.5407 34.8843 40.18 34.89C39.6027 34.7854 39.053 34.5637 38.5645 34.2387C38.0761 33.9136 37.6594 33.4921 37.34 33C36.7758 32.3363 36.427 31.5167 36.34 30.65C36.3347 30.0499 36.4758 29.4576 36.7511 28.9244C37.0264 28.3911 37.4277 27.9331 37.92 27.59C38.0393 27.5129 38.1667 27.4491 38.3 27.4C38.5607 27.2952 38.839 27.2409 39.12 27.24C39.4298 27.246 39.7367 27.3 40.03 27.4C39.9904 27.7987 39.9803 28.1998 40 28.6C40.0456 30.6367 40.4449 32.65 41.18 34.55Z" stroke="currentColor" stroke-width="2" stroke-linecap="round" stroke-linejoin="round"/>
<path d="M63.7001 30.72C63.7001 32.35 61.4501 34.95 59.8201 34.95C59.4594 34.9437 59.1098 34.8248 58.8201 34.61C59.5806 32.7178 60.007 30.708 60.0801 28.67C60.089 28.2618 60.0623 27.8536 60.0001 27.45C60.2784 27.3617 60.5681 27.3146 60.8601 27.31C61.1784 27.312 61.4924 27.3837 61.7801 27.52C62.3641 27.8244 62.8526 28.2844 63.1915 28.8491C63.5303 29.4139 63.7064 30.0614 63.7001 30.72Z" stroke="currentColor" stroke-width="2" stroke-linecap="round" stroke-linejoin="round"/>
<path d="M60.3 54.82L62.65 58.99L50.01 77.29L53.76 62.95L58.21 45.97L65.21 51.79L60.3 54.82Z" stroke="currentColor" stroke-width="2" stroke-linecap="round" stroke-linejoin="round"/>
<path d="M37.35 58.99L39.71 54.82L34.79 51.79L41.8 45.97L46.28 63.05L50.01 77.29L37.35 58.99Z" stroke="currentColor" stroke-width="2" stroke-linecap="round" stroke-linejoin="round"/>
<path d="M53.76 62.95L50.01 77.29L46.28 63.05L50.11 48.59L53.76 62.95Z" stroke="currentColor" stroke-width="2" stroke-linecap="round" stroke-linejoin="round"/>
<path d="M49.92 84.22H25.72V66.4C25.7203 64.1809 26.2098 61.9892 27.1535 59.9808C28.0972 57.9724 29.472 56.1967 31.18 54.78L41.79 46L50.11 48.61L58.11 46H58.22L68.83 54.81C70.5323 56.2244 71.9028 57.9957 72.8446 59.9986C73.7864 62.0014 74.2764 64.1868 74.28 66.4V84.22H50.08" stroke="currentColor" stroke-width="2" stroke-linecap="round" stroke-linejoin="round"/>
<path d="M38.6101 80H41.0001V73.16C41.0001 71.6191 40.388 70.1413 39.2984 69.0517C38.2088 67.9621 36.731 67.35 35.1901 67.35C33.6483 67.35 32.1695 67.9618 31.0783 69.0511C29.9871 70.1404 29.3728 71.6182 29.3701 73.16V80H31.8401" stroke="currentColor" stroke-width="2" stroke-linecap="round" stroke-linejoin="round"/>
<path d="M65.21 70.75V51.79" stroke="currentColor" stroke-width="2" stroke-linecap="round" stroke-linejoin="round"/>
<path d="M35.1799 67.35V51.47" stroke="currentColor" stroke-width="2" stroke-linecap="round" stroke-linejoin="round"/>
<path d="M65.21 76.63C66.8337 76.63 68.15 75.3137 68.15 73.69C68.15 72.0663 66.8337 70.75 65.21 70.75C63.5863 70.75 62.27 72.0663 62.27 73.69C62.27 75.3137 63.5863 76.63 65.21 76.63Z" stroke="currentColor" stroke-width="2" stroke-linecap="round" stroke-linejoin="round"/>
<path d="M47.74 42.76H35C35 42.76 37.17 35.76 37.3 33C37.6205 33.4932 38.0388 33.9154 38.529 34.2405C39.0192 34.5656 39.5709 34.7866 40.15 34.89C40.5107 34.8844 40.8606 34.7654 41.15 34.55C41.6425 35.8226 42.2623 37.0421 43 38.19C44.1008 40.1428 45.7484 41.7312 47.74 42.76Z" stroke="currentColor" stroke-width="2" stroke-linecap="round" stroke-linejoin="round"/>
<path d="M52.22 42.76H64.92C64.92 42.76 62.75 35.76 62.62 33C62.2994 33.4932 61.8811 33.9154 61.3909 34.2405C60.9007 34.5656 60.349 34.7866 59.77 34.89C59.4092 34.8844 59.0594 34.7654 58.77 34.55C58.3024 35.816 57.7095 37.032 57 38.18C55.8858 40.1389 54.2247 41.7305 52.22 42.76Z" stroke="currentColor" stroke-width="2" stroke-linecap="round" stroke-linejoin="round"/>
<path d="M37.3401 33V32.99" stroke="currentColor" stroke-width="2" stroke-linecap="round" stroke-linejoin="round"/>
<path d="M47.76 42.76H47.74" stroke="currentColor" stroke-width="2" stroke-linecap="round" stroke-linejoin="round"/>
<path d="M61.8501 27.5C61.5624 27.3637 61.2484 27.292 60.9301 27.29C60.6381 27.2946 60.3484 27.3417 60.0701 27.43C60.0804 27.3069 60.0804 27.1831 60.0701 27.06L59.8901 26.6C58.7022 26.3125 57.6004 25.7449 56.6766 24.9447C55.7529 24.1444 55.034 23.1348 54.5801 22C54.1001 21.86 53.5801 21.74 53.1701 21.62C49.7701 26.82 40.1701 27.04 40.1701 27.04L40.0501 27.36C39.7568 27.26 39.4498 27.206 39.1401 27.2C38.8591 27.201 38.5808 27.2553 38.3201 27.36C38.3201 27.36 36.8901 19.23 42.5501 16.09C44.783 14.7716 47.3491 14.1258 49.9401 14.23C54.8101 14.23 59.4101 16.23 61.2901 19.75C62.3301 21.76 62.0001 24.12 61.8501 27.5Z" stroke="currentColor" stroke-width="2" stroke-linecap="round" stroke-linejoin="round"/>
</svg>
