<svg width="100" height="100" viewBox="0 0 100 100" fill="none" xmlns="http://www.w3.org/2000/svg">
<path d="M44 39H37V54H44V39Z" stroke="currentColor" stroke-width="2" stroke-linecap="round" stroke-linejoin="round"/>
<path d="M44 53.9999H59.2903C59.8107 54.0051 60.3152 53.8176 60.7097 53.4724C61.1043 53.1272 61.362 52.6478 61.4348 52.1235L62.9789 41.2145C63.0221 40.9034 62.9988 40.5866 62.9106 40.2855C62.8224 39.9845 62.6713 39.7063 62.4676 39.4702C62.264 39.234 62.0127 39.0454 61.7308 38.9171C61.4489 38.7889 61.1431 38.7241 60.8344 38.7272H52.578V32.1818C52.578 31.6032 52.3521 31.0482 51.9499 30.639C51.5477 30.2299 51.0023 30 50.4335 30L44 38.7272" stroke="currentColor" stroke-width="2" stroke-linecap="round" stroke-linejoin="round"/>
<path d="M50 20C43.9021 20.0069 38.056 22.4323 33.7441 26.7441C29.4323 31.056 27.0069 36.9021 27 43C27 64.2837 48.5205 79.2017 49.4365 79.8262C49.6026 79.9395 49.799 80.0001 50 80.0001C50.201 80.0001 50.3974 79.9395 50.5635 79.8262C51.48 79.2017 73 64.2837 73 43C72.9931 36.9021 70.5677 31.056 66.2559 26.7441C61.944 22.4323 56.0979 20.0069 50 20ZM50 77.7681C46.5986 75.2578 29 61.3745 29 43C29 37.4305 31.2125 32.089 35.1508 28.1508C39.089 24.2125 44.4305 22 50 22C55.5695 22 60.911 24.2125 64.8492 28.1508C68.7875 32.089 71 37.4305 71 43C71 61.356 53.4 75.2549 50 77.7681Z" fill="currentColor"/>
</svg>
