<svg width="335" height="130" viewBox="0 0 335 130" fill="none" xmlns="http://www.w3.org/2000/svg">
<path fill-rule="evenodd" clip-rule="evenodd" d="M62.3571 0L0 78.2301V100.088H56.5833V130H79.6786V100.088H97V78.2301H79.6786V0H62.3571ZM56.5833 77.6549V38.5398L25.4048 77.6549H56.5833Z" fill="#BA3288"/>
<path fill-rule="evenodd" clip-rule="evenodd" d="M167 130C202.899 130 232 100.899 232 65C232 29.1015 202.899 0 167 0C131.101 0 102 29.1015 102 65C102 100.899 131.101 130 167 130ZM167.5 112C193.181 112 214 91.1812 214 65.5C214 39.8188 193.181 19 167.5 19C141.819 19 121 39.8188 121 65.5C121 91.1812 141.819 112 167.5 112Z" fill="#BA3288"/>
<path d="M155.528 46.6577C155.528 47.3359 154.968 47.8962 154.29 47.8962C153.612 47.8962 153.081 47.3359 153.081 46.6577V36.3962C153.081 34.8923 153.671 33.5654 154.644 32.5923C155.617 31.6192 156.973 31 158.447 31H176.553C178.056 31 179.383 31.6192 180.356 32.5923C181.33 33.5654 181.949 34.8923 181.949 36.3962V51.0808H196.633C198.108 51.0808 199.464 51.6705 200.437 52.6436C201.41 53.6167 202 54.9731 202 56.4474V74.5526C202 76.0564 201.41 77.3833 200.437 78.3564C199.464 79.3295 198.108 79.9487 196.633 79.9487C194.156 79.9487 191.856 78.5923 189.91 76.6756C187.433 74.2577 185.487 70.8667 184.426 68.3308C182.715 64.1141 181.683 61.7846 180.386 60.2808C179.177 58.8654 177.585 58.1282 174.695 57.0667L168.119 54.6782C167.471 54.4423 166.999 54.3244 166.674 54.2949C166.94 54.7667 167.559 55.3269 168.473 55.8577C170.744 57.1256 172.66 58.5705 174.282 60.4577C175.874 62.3449 177.172 64.6154 178.145 67.5641C178.676 69.1859 178.853 70.5423 178.705 71.3974C178.617 71.9577 178.41 72.3705 178.086 72.6949C177.644 73.1077 177.113 73.2846 176.494 73.1372C175.933 73.0487 175.344 72.6949 174.695 72.0462C174.017 71.368 173.515 70.5718 173.014 69.8051C172.424 68.8615 171.835 67.9769 170.95 67.8L173.899 72.8718C175.697 75.9974 177.997 77.0295 180.474 78.15C180.887 78.3269 180.622 78.209 181.064 78.3859C181.683 78.6808 181.949 79.3885 181.683 80.0077C181.418 80.6269 180.681 80.8923 180.062 80.6269L179.472 80.3615C176.612 79.0641 173.958 77.8846 171.776 74.1103L168.001 67.5641C168.001 67.5641 167.972 67.5346 167.972 67.5051C167.677 66.9154 167.913 66.1782 168.503 65.8833C172.189 64.0256 173.574 66.1782 175.078 68.4782C175.462 69.068 175.845 69.6872 176.287 70.159C176.199 69.6577 176.051 69.0385 175.815 68.3308C174.931 65.7064 173.81 63.6718 172.424 62.05C171.009 60.3987 169.299 59.1308 167.264 57.9808C165.642 57.0667 164.61 55.8577 164.256 54.8551C164.08 54.3244 164.05 53.7936 164.227 53.3218C164.404 52.7615 164.787 52.3487 165.377 52.0833C166.173 51.759 167.353 51.7885 168.945 52.3782L175.521 54.7667C178.823 55.9756 180.681 56.8897 182.244 58.6885C183.747 60.4282 184.839 62.9346 186.696 67.3872C187.64 69.6872 189.409 72.7538 191.621 74.9359C193.154 76.4397 194.864 77.5013 196.633 77.5013C197.43 77.5013 198.167 77.1769 198.697 76.6462C199.228 76.1154 199.553 75.3782 199.553 74.5526V56.4474C199.553 55.6513 199.228 54.9141 198.697 54.3833C198.167 53.8526 197.43 53.5282 196.633 53.5282H180.71C180.032 53.5282 179.501 52.968 179.501 52.2897V36.3962C179.501 35.5705 179.177 34.8333 178.646 34.3026C178.115 33.7718 177.378 33.4474 176.553 33.4474H158.447C157.651 33.4474 156.914 33.7718 156.383 34.3026C155.853 34.8333 155.528 35.5705 155.528 36.3962V46.6577Z" fill="#007DC2"/>
<path d="M179.501 84.3423C179.501 83.6641 180.032 83.1334 180.71 83.1334C181.388 83.1334 181.949 83.6641 181.949 84.3423V94.6334C181.949 96.1077 181.329 97.4641 180.356 98.4372C179.383 99.4103 178.056 100 176.553 100H158.447C156.973 100 155.617 99.4103 154.644 98.4372C153.671 97.4641 153.081 96.1077 153.081 94.6334V79.9487H138.396C136.892 79.9487 135.565 79.3295 134.592 78.3564C133.619 77.3834 133 76.0564 133 74.5526V56.4475C133 54.9731 133.619 53.6167 134.592 52.6436C135.565 51.6705 136.892 51.0808 138.396 51.0808C140.873 51.0808 143.144 52.4077 145.09 54.3244C147.567 56.7718 149.542 60.1628 150.574 62.6987C152.314 66.8859 153.346 69.2449 154.614 70.7193C155.823 72.1346 157.415 72.8718 160.335 73.9334L166.881 76.3513C167.559 76.5872 168.031 76.7052 168.326 76.7052C168.06 76.2334 167.471 75.6731 166.556 75.1718C164.286 73.8744 162.34 72.4295 160.747 70.5423C159.126 68.6846 157.858 66.3846 156.885 63.4654C156.354 61.8436 156.177 60.4872 156.295 59.6026C156.383 59.0718 156.59 58.6295 156.914 58.3052C157.356 57.8923 157.887 57.7449 158.536 57.8628C159.067 57.9808 159.656 58.3346 160.305 58.9834C160.983 59.6321 161.485 60.4282 161.986 61.1949C162.605 62.1385 163.195 63.0526 164.05 63.2L161.131 58.1282C159.332 55.0321 157.032 54 154.526 52.8795C154.113 52.7026 154.378 52.8205 153.936 52.6141C153.317 52.3487 153.051 51.6116 153.317 50.9923C153.612 50.3731 154.319 50.1077 154.938 50.3731L155.528 50.6385C158.388 51.9359 161.042 53.1154 163.224 56.9193L166.999 63.4359C167.028 63.4654 167.028 63.4654 167.028 63.4949C167.353 64.1141 167.117 64.8218 166.497 65.1462C162.841 66.9744 161.426 64.8218 159.951 62.5218C159.568 61.9321 159.155 61.3423 158.742 60.8705C158.801 61.3423 158.949 61.9616 159.185 62.6987C160.069 65.3231 161.19 67.3282 162.605 68.9795C163.991 70.6013 165.701 71.8693 167.736 73.0193C169.358 73.9334 170.419 75.1423 170.744 76.1449C170.921 76.7052 170.95 77.2064 170.803 77.6782C170.596 78.2385 170.213 78.6808 169.623 78.9167C168.856 79.2411 167.647 79.2116 166.055 78.6218L159.509 76.2334C156.177 75.0244 154.319 74.1398 152.756 72.3116C151.253 70.5718 150.162 68.0654 148.333 63.6128C147.36 61.3128 145.621 58.2462 143.379 56.0641C141.846 54.5603 140.136 53.5282 138.396 53.5282C137.571 53.5282 136.833 53.8526 136.303 54.3834C135.772 54.9141 135.447 55.6513 135.447 56.4475V74.5526C135.447 75.3782 135.772 76.1154 136.303 76.6462C136.833 77.177 137.571 77.5013 138.396 77.5013H154.29C154.968 77.5013 155.528 78.0321 155.528 78.7103V94.6334C155.528 95.4295 155.853 96.1667 156.383 96.6975C156.914 97.2282 157.651 97.5526 158.447 97.5526H176.553C177.378 97.5526 178.115 97.2282 178.646 96.6975C179.177 96.1667 179.501 95.4295 179.501 94.6334V84.3423Z" fill="#BA3288"/>
<path fill-rule="evenodd" clip-rule="evenodd" d="M300.357 0L238 78.2301V100.088H294.583V130H317.679V100.088H335V78.2301H317.679V0H300.357ZM294.583 77.6549V38.5398L263.405 77.6549H294.583Z" fill="#BA3288"/>
</svg>
