<svg width="40" height="45" viewBox="0 0 40 45" fill="none" xmlns="http://www.w3.org/2000/svg">
<g clip-path="url(#clip0_33_21)">
<mask id="mask0_33_21" style="mask-type:luminance" maskUnits="userSpaceOnUse" x="0" y="0" width="40" height="45">
<path d="M40 0H0V45H40V0Z" fill="white"/>
</mask>
<g mask="url(#mask0_33_21)">
<mask id="mask1_33_21" style="mask-type:luminance" maskUnits="userSpaceOnUse" x="0" y="0" width="40" height="45">
<path d="M40 0H0V45H40V0Z" fill="white"/>
</mask>
<g mask="url(#mask1_33_21)">
<path fill-rule="evenodd" clip-rule="evenodd" d="M24.8089 39.4181C33.5319 37.265 40 29.3879 40 20C40 8.9543 31.0457 0 20 0C8.9543 0 0 8.9543 0 20C0 29.3879 6.46821 37.2651 15.1912 39.4181C15.804 39.6381 17.0749 40.3088 18.5 42.314C19.0081 43.0289 19.3533 43.6147 19.5831 44.0548C19.7222 44.3211 20.2778 44.3211 20.4169 44.0548C20.6467 43.6147 20.9919 43.0289 21.5 42.314C22.9252 40.3088 24.1961 39.638 24.8089 39.4181Z" fill="#E4332C"/>
</g>
</g>
<path fill-rule="evenodd" clip-rule="evenodd" d="M14.7688 14.749H10.9C8.7459 14.749 7 16.4971 7 18.654V21.2874C7 23.4443 8.7459 25.1924 10.9 25.1924H14.7688V29.0949C14.7688 31.2518 16.5147 33 18.6688 33H21.2987C23.4528 33 25.1987 31.2518 25.1987 29.0949V25.1924H29.1C31.2541 25.1924 33 23.4443 33 21.2874V18.654C33 16.4971 31.2541 14.749 29.1 14.749H25.1987V10.9051C25.1987 8.74817 23.4528 7 21.2987 7H18.6688C16.5147 7 14.7688 8.74817 14.7688 10.9051V14.749ZM16.0688 17.3524C16.7864 17.3524 17.3688 16.7692 17.3688 16.0507V10.9051C17.3688 10.1852 17.9499 9.60338 18.6688 9.60338H21.2987C22.0163 9.60338 22.5987 10.1852 22.5987 10.9051V16.0507C22.5987 16.7692 23.1798 17.3524 23.8987 17.3524H29.1C29.8176 17.3524 30.4 17.9342 30.4 18.654V21.2874C30.4 22.0059 29.8176 22.5891 29.1 22.5891H23.8987C23.1798 22.5891 22.5987 23.1709 22.5987 23.8908V29.0949C22.5987 29.8148 22.0163 30.3966 21.2987 30.3966H18.6688C17.9499 30.3966 17.3688 29.8148 17.3688 29.0949V23.8908C17.3688 23.1709 16.7864 22.5891 16.0688 22.5891H10.9C10.1824 22.5891 9.6 22.0059 9.6 21.2874V18.654C9.6 17.9342 10.1824 17.3524 10.9 17.3524H16.0688Z" fill="white"/>
</g>
<defs>
<clipPath id="clip0_33_21">
<rect width="40" height="45" fill="white"/>
</clipPath>
</defs>
</svg>
