<svg width="241" height="66" viewBox="0 0 241 66" fill="none" xmlns="http://www.w3.org/2000/svg">
<g clip-path="url(#clip0_1_3)">
<path d="M102.903 47.2845C98.6344 47.2845 94.9875 46.3106 92.0037 44.3629C88.9993 42.4152 86.9064 39.7422 85.7253 36.3441L92.0244 32.6557C93.8064 37.6494 97.4947 40.1565 103.11 40.1565C105.866 40.1565 107.938 39.6178 109.306 38.5404C110.694 37.4628 111.378 36.0538 111.378 34.3134C111.378 32.49 110.632 31.081 109.14 30.1278C107.669 29.1747 105.037 28.1387 101.266 26.9783C99.1317 26.3567 97.4118 25.7557 96.1064 25.1963C94.7804 24.6576 93.392 23.8702 91.9417 22.8756C90.4704 21.881 89.3723 20.6377 88.647 19.1666C87.9426 17.6747 87.5696 15.9342 87.5696 13.945C87.5696 9.98735 88.9786 6.85852 91.7758 4.55853C94.5731 2.23783 97.9505 1.07747 101.887 1.07747C105.451 1.07747 108.58 1.94773 111.253 3.68828C113.926 5.4288 115.978 7.8324 117.428 10.8783L111.253 14.4423C109.388 10.2982 106.26 8.20537 101.887 8.20537C99.7741 8.20537 98.0748 8.70267 96.8108 9.69726C95.5262 10.7126 94.8838 12.0594 94.8838 13.7378C94.8838 15.3954 95.547 16.7008 96.8317 17.654C98.1371 18.6072 100.478 19.6225 103.856 20.6792C105.555 21.2386 106.798 21.653 107.586 21.9223C108.373 22.1919 109.471 22.6269 110.901 23.2279C112.331 23.8287 113.387 24.4089 114.113 25.0097C114.838 25.6107 115.605 26.3567 116.433 27.2477C117.262 28.1387 117.842 29.154 118.195 30.2936C118.526 31.4331 118.692 32.7387 118.692 34.1684C118.692 38.2088 117.241 41.3998 114.341 43.7619C111.44 46.1035 107.627 47.2845 102.903 47.2845ZM150.643 14.6288H157.522V46.4556H150.643V41.8765C148.053 45.4818 144.344 47.2845 139.516 47.2845C135.144 47.2845 131.394 45.6683 128.306 42.4152C125.219 39.1828 123.665 35.2251 123.665 30.5423C123.665 25.8386 125.219 21.881 128.306 18.6486C131.394 15.4162 135.144 13.8207 139.516 13.8207C144.344 13.8207 148.053 15.6026 150.643 19.1666V14.6288ZM133.404 37.8358C135.31 39.7629 137.714 40.7368 140.594 40.7368C143.474 40.7368 145.877 39.7629 147.784 37.8358C149.69 35.9088 150.643 33.4845 150.643 30.5423C150.643 27.6206 149.69 25.1963 147.784 23.2693C145.877 21.3423 143.474 20.3683 140.594 20.3683C137.714 20.3683 135.31 21.3423 133.404 23.2693C131.497 25.1963 130.544 27.6206 130.544 30.5423C130.544 33.4845 131.497 35.9088 133.404 37.8358ZM165.541 46.4556V0H172.42V46.4556H165.541ZM201.823 14.6288H208.681V46.4556H201.823V42.3945C199.73 45.6476 196.457 47.2845 191.96 47.2845C188.314 47.2845 185.349 46.1242 183.113 43.7826C180.854 41.4619 179.734 38.2502 179.734 34.1684V14.6288H186.614V33.4845C186.614 35.8467 187.235 37.6701 188.521 38.9548C189.784 40.2188 191.525 40.8611 193.742 40.8611C196.145 40.8611 198.114 40.1152 199.586 38.6025C201.077 37.0899 201.823 34.79 201.823 31.7027V14.6288ZM222.689 23.4143C222.689 24.4917 223.269 25.3206 224.45 25.9423C225.611 26.5431 227.04 27.0819 228.719 27.517C230.376 27.9729 232.076 28.491 233.774 29.0917C235.474 29.672 236.903 30.6873 238.064 32.117C239.223 33.526 239.824 35.3287 239.824 37.4835C239.824 40.5502 238.644 42.9332 236.282 44.6736C233.92 46.4142 230.977 47.2845 227.413 47.2845C224.263 47.2845 221.569 46.6215 219.311 45.316C217.074 44.0106 215.437 42.1665 214.422 39.8458L220.347 36.4061C221.446 39.4521 223.786 40.9855 227.413 40.9855C231.018 40.9855 232.821 39.8044 232.821 37.4215C232.821 36.4061 232.22 35.5774 231.061 34.9351C229.9 34.3134 228.471 33.7747 226.792 33.3188C225.114 32.8837 223.435 32.345 221.735 31.7647C220.037 31.1638 218.606 30.1693 217.447 28.8017C216.286 27.4134 215.685 25.6729 215.685 23.5593C215.685 20.617 216.805 18.2756 219.042 16.4936C221.259 14.7117 224.036 13.8207 227.331 13.8207C229.962 13.8207 232.324 14.4008 234.375 15.5612C236.426 16.7215 238.001 18.3585 239.12 20.4306L233.319 23.6837C232.22 21.2593 230.231 20.0576 227.331 20.0576C226.025 20.0576 224.926 20.3269 224.036 20.9072C223.144 21.4873 222.689 22.3162 222.689 23.4143Z" fill="#007DC2"/>
<path d="M97.3291 54.0602V62.1827H95.9408V56.2773L93.3507 60.4421H93.1642L90.5741 56.2773V62.1827H89.1858V54.0602H90.6984L93.2471 58.1628L95.8165 54.0602H97.3291ZM100.479 58.7844C100.624 59.5097 100.955 60.0691 101.473 60.4628C102.012 60.8773 102.654 61.0637 103.421 61.0637C104.498 61.0637 105.286 60.6701 105.762 59.8827L106.964 60.5664C106.177 61.789 104.975 62.4105 103.4 62.4105C102.095 62.4105 101.059 61.9961 100.251 61.1881C99.4425 60.38 99.0282 59.3647 99.0282 58.1214C99.0282 56.899 99.4219 55.8836 100.209 55.0547C101.017 54.2466 102.033 53.853 103.297 53.853C104.478 53.853 105.452 54.2673 106.218 55.0963C106.964 55.9457 107.337 56.961 107.337 58.1421C107.337 58.3493 107.337 58.5564 107.296 58.7844H100.479ZM103.297 55.179C102.53 55.179 101.908 55.3863 101.411 55.8214C100.914 56.2566 100.603 56.816 100.479 57.5413H105.907C105.804 56.7746 105.493 56.1737 104.996 55.78C104.519 55.3863 103.939 55.179 103.297 55.179ZM115.646 60.8358H116.765V64.3791H115.377V62.1827H109.264V64.3791H107.876V60.8358H108.85C109.388 60.1314 109.637 59.116 109.637 57.8313V54.0602H115.646V60.8358ZM110.466 60.8358H114.237V55.3656H111.046V57.8313C111.046 59.0538 110.839 60.0484 110.466 60.8358ZM124.204 54.0602H125.343V62.1827H123.934V56.4844L119.438 62.1827H118.298V54.0602H119.687V59.7584L124.204 54.0602ZM134.336 60.8358H135.662V64.3791H134.253V62.1827H127.498V54.0602H128.907V60.8358H132.906V54.0602H134.336V60.8358ZM143.08 54.0602H144.22V62.1827H142.831V56.4844L138.314 62.1827H137.175V54.0602H138.584V59.7584L143.08 54.0602ZM151.99 54.0602H153.42V62.1827H151.99V58.7844H147.784V62.1827H146.375V54.0602H147.784V57.4377H151.99V54.0602ZM159.387 62.4105C158.165 62.4105 157.15 61.9961 156.321 61.1674C155.513 60.3591 155.098 59.344 155.098 58.1214C155.098 56.899 155.513 55.8836 156.321 55.0754C157.15 54.2466 158.165 53.853 159.387 53.853C160.195 53.853 160.921 54.0394 161.542 54.4124C162.185 54.806 162.661 55.3241 162.993 55.9664L161.791 56.6503C161.584 56.2151 161.273 55.8836 160.838 55.6143C160.423 55.3656 159.926 55.2206 159.387 55.2206C158.579 55.2206 157.896 55.5106 157.336 56.0493C156.797 56.6087 156.528 57.2926 156.528 58.1214C156.528 58.9294 156.797 59.6133 157.336 60.1727C157.896 60.7321 158.579 61.0015 159.387 61.0015C159.926 61.0015 160.423 60.8773 160.859 60.6287C161.294 60.3591 161.625 60.0277 161.853 59.5926L163.055 60.2971C162.703 60.9187 162.205 61.4367 161.542 61.8304C160.9 62.2034 160.175 62.4105 159.387 62.4105ZM171.343 62.1827H169.582L165.873 58.3287V62.1827H164.464V54.0602H165.873V57.6448L169.395 54.0602H171.219L167.323 57.9971L171.343 62.1827ZM178.575 54.0602H179.715V62.1827H178.305V56.4844L173.809 62.1827H172.669V54.0602H174.058V59.7584L178.575 54.0602ZM183.195 52.8376V51.5943H187.588V52.8376H183.195ZM187.774 54.0602H188.914V62.1827H187.504V56.4844L183.009 62.1827H181.869V54.0602H183.257V59.7584L187.774 54.0602ZM201.969 60.8358H203.294V64.3791H201.885V62.1827H195.13V54.0602H196.539V60.8358H200.538V54.0602H201.969V60.8358ZM205.471 58.7844C205.615 59.5097 205.947 60.0691 206.486 60.4628C207.003 60.8773 207.645 61.0637 208.412 61.0637C209.49 61.0637 210.278 60.6701 210.754 59.8827L211.976 60.5664C211.168 61.789 209.987 62.4105 208.393 62.4105C207.106 62.4105 206.05 61.9961 205.242 61.1881C204.434 60.38 204.02 59.3647 204.02 58.1214C204.02 56.899 204.413 55.8836 205.221 55.0547C206.009 54.2466 207.024 53.853 208.287 53.853C209.49 53.853 210.463 54.2673 211.209 55.0963C211.955 55.9457 212.349 56.961 212.349 58.1421C212.349 58.3493 212.329 58.5564 212.286 58.7844H205.471ZM208.287 55.179C207.522 55.179 206.899 55.3863 206.402 55.8214C205.906 56.2566 205.594 56.816 205.471 57.5413H210.92C210.795 56.7746 210.485 56.1737 210.009 55.78C209.511 55.3863 208.951 55.179 208.287 55.179ZM219.602 54.0602H221.011V62.1827H219.602V58.7844H215.396V62.1827H213.965V54.0602H215.396V57.4377H219.602V54.0602ZM229.216 54.0602V55.4277H226.46V62.1827H225.03V55.4277H222.254V54.0602H229.216ZM234.955 53.853C236.095 53.853 237.049 54.2673 237.857 55.0963C238.665 55.925 239.058 56.9403 239.058 58.1214C239.058 59.3231 238.665 60.3384 237.857 61.1674C237.049 61.9961 236.095 62.4105 234.955 62.4105C233.608 62.4105 232.573 61.8718 231.869 60.7944V65.4565H230.46V54.0602H231.869V55.4484C232.573 54.371 233.608 53.853 234.955 53.853ZM234.769 61.043C235.577 61.043 236.261 60.753 236.821 60.1934C237.379 59.634 237.648 58.9503 237.648 58.1214C237.648 57.2926 237.379 56.6087 236.821 56.0493C236.261 55.4899 235.577 55.2206 234.769 55.2206C233.94 55.2206 233.257 55.4899 232.697 56.0493C232.138 56.6087 231.869 57.2926 231.869 58.1214C231.869 58.9503 232.138 59.634 232.697 60.1934C233.257 60.753 233.94 61.043 234.769 61.043Z" fill="#C91493"/>
<path d="M21.7608 14.4423C21.7608 15.0639 21.2635 15.5819 20.6419 15.5819C20.0202 15.5819 19.5022 15.0639 19.5022 14.4423V4.97296C19.5022 3.60538 20.0618 2.36216 20.9735 1.45044C21.8645 0.559457 23.1076 0 24.4752 0H41.1761C42.5435 0 43.7868 0.559457 44.6985 1.45044C45.5895 2.36216 46.1489 3.60538 46.1489 4.97296V18.5035H59.7003C61.0677 18.5035 62.2904 19.0629 63.202 19.9746C64.093 20.8656 64.6524 22.1089 64.6524 23.4766V40.1772C64.6524 41.5449 64.093 42.7882 63.202 43.6998C62.2904 44.5908 61.0677 45.1502 59.7003 45.1502C57.4003 45.1502 55.2867 43.9069 53.5049 42.1458C51.2049 39.9079 49.4022 36.7584 48.4489 34.4377C46.8535 30.5423 45.9002 28.3873 44.7192 27.0197C43.6004 25.7143 42.1291 25.0306 39.4561 24.036L33.4057 21.8396C32.7841 21.6116 32.349 21.508 32.059 21.4873C32.3076 21.9223 32.867 22.4405 33.7166 22.917C35.8094 24.098 37.5707 25.445 39.0625 27.1647C40.5544 28.9053 41.7355 30.9981 42.6265 33.7124C43.1238 35.2251 43.2895 36.4684 43.1652 37.2764C43.0824 37.7738 42.8751 38.1674 42.5851 38.4575C42.1914 38.8512 41.6941 38.9962 41.1138 38.8719C40.6165 38.7682 40.0571 38.4575 39.4561 37.8565C38.8347 37.2351 38.3787 36.5098 37.9228 35.8052C37.3427 34.935 36.804 34.1061 36.0166 33.9404L38.7103 38.6232C40.3678 41.5035 42.5021 42.4566 44.8021 43.4719C45.1751 43.6583 44.9265 43.5341 45.3408 43.7205C45.9002 43.9692 46.1698 44.6529 45.9002 45.2125C45.6518 45.7719 44.9885 46.0412 44.4085 45.7719L43.8698 45.5439C41.2381 44.3422 38.7931 43.2439 36.7624 39.7629L33.2814 33.7331C33.2814 33.7124 33.2607 33.6917 33.2607 33.6711C32.9707 33.1324 33.1986 32.4485 33.758 32.1584C37.1354 30.4594 38.4201 32.4485 39.8084 34.5828C40.1607 35.1215 40.513 35.6809 40.9067 36.1161C40.8445 35.6602 40.7201 35.1008 40.4922 34.417C39.6841 31.9927 38.6481 30.1484 37.3634 28.636C36.058 27.1233 34.4833 25.9423 32.6184 24.8856C31.1057 24.0566 30.1526 22.9377 29.8419 22.0053C29.6553 21.508 29.6553 21.0315 29.8003 20.5963C29.9662 20.0783 30.3183 19.6846 30.8779 19.4566C31.5823 19.1666 32.6806 19.1666 34.1724 19.726L40.2228 21.9223C43.2688 23.0413 44.9885 23.8702 46.4391 25.5486C47.8066 27.1647 48.8219 29.4647 50.521 33.5674C51.3913 35.7017 53.0282 38.5197 55.0796 40.5295C56.4886 41.9179 58.0633 42.8918 59.7003 42.8918C60.4254 42.8918 61.1093 42.5809 61.6066 42.0836C62.1038 41.6071 62.394 40.9232 62.394 40.1772V23.4766C62.394 22.7306 62.1038 22.0467 61.6066 21.5702C61.1093 21.0729 60.4254 20.762 59.7003 20.762H45.0094C44.3878 20.762 43.8904 20.2649 43.8904 19.6432V4.97296C43.8904 4.22701 43.5795 3.54324 43.0824 3.04594C42.6058 2.56936 41.922 2.25856 41.1761 2.25856H24.4752C23.7292 2.25856 23.0455 2.56936 22.5689 3.04594C22.0716 3.54324 21.7608 4.22701 21.7608 4.97296V14.4423Z" fill="#007DC2"/>
<path d="M43.8905 49.2116C43.8905 48.5899 44.3878 48.0926 45.0095 48.0926C45.6309 48.0926 46.149 48.5899 46.149 49.2116V58.7015C46.149 60.0691 45.5896 61.2917 44.6986 62.2034C43.7869 63.0944 42.5436 63.6538 41.1761 63.6538H24.4753C23.1076 63.6538 21.8645 63.0944 20.9735 62.2034C20.0618 61.2917 19.5023 60.0691 19.5023 58.7015V45.1502H5.97173C4.60417 45.1502 3.36093 44.5908 2.44922 43.6998C1.55824 42.7882 0.998779 41.5449 0.998779 40.1772V23.4766C0.998779 22.1089 1.55824 20.8656 2.44922 19.9746C3.36093 19.0629 4.60417 18.5035 5.97173 18.5035C8.25101 18.5035 10.3645 19.7468 12.1465 21.508C14.4465 23.7666 16.2492 26.8954 17.2023 29.2368C18.8185 33.1115 19.7509 35.2665 20.932 36.6341C22.0509 37.9395 23.5222 38.6441 26.2157 39.6178L32.2661 41.8349C32.8671 42.0422 33.3023 42.1458 33.5924 42.1665C33.3437 41.7314 32.7843 41.2133 31.9347 40.7368C29.842 39.5558 28.0807 38.2088 26.5887 36.4891C25.0969 34.7485 23.9159 32.6557 23.0249 29.9413C22.5276 28.4494 22.3617 27.2063 22.5069 26.3773C22.5896 25.88 22.7762 25.4863 23.0663 25.1963C23.4599 24.8026 23.9573 24.6576 24.5373 24.7819C25.0347 24.8856 25.5942 25.217 26.195 25.7973C26.8167 26.4187 27.2726 27.144 27.7284 27.8486C28.3086 28.7187 28.8473 29.5477 29.6554 29.7134L26.941 25.0306C25.2833 22.171 23.1492 21.2179 20.8699 20.1819C20.4762 20.0162 20.7249 20.1197 20.3105 19.9332C19.7509 19.6846 19.5023 19.0216 19.7509 18.4413C19.9996 17.8819 20.6833 17.6333 21.2429 17.8819L21.7816 18.1306C24.413 19.3116 26.8789 20.4099 28.8887 23.9116L32.3698 29.9207C32.3698 29.9413 32.3905 29.962 32.3905 29.9827C32.6807 30.5423 32.4527 31.2053 31.8933 31.4954C28.5157 33.1944 27.231 31.2053 25.8429 29.071C25.4906 28.5323 25.1383 27.9729 24.7446 27.5377C24.8067 27.9936 24.9519 28.5737 25.159 29.2368C25.9672 31.6611 27.0033 33.526 28.2879 35.0178C29.5933 36.5305 31.168 37.7115 33.0537 38.7682C34.5454 39.6178 35.4987 40.7161 35.8301 41.6485C35.996 42.1458 35.996 42.6223 35.8508 43.0782C35.6851 43.5755 35.3328 43.9692 34.7734 44.1972C34.069 44.5079 32.9707 44.4872 31.4996 43.9485L25.449 41.7314C22.3825 40.6125 20.6626 39.7836 19.2329 38.1052C17.8447 36.5098 16.8294 34.2098 15.1302 30.0864C14.26 27.9729 12.6231 25.134 10.5717 23.1243C9.1627 21.7359 7.58794 20.762 5.97173 20.762C5.22578 20.762 4.54201 21.0729 4.0447 21.5702C3.56813 22.0467 3.25732 22.7306 3.25732 23.4766V40.1772C3.25732 40.9232 3.56813 41.6071 4.0447 42.0836C4.54201 42.5809 5.22578 42.8918 5.97173 42.8918H20.6419C21.2636 42.8918 21.7609 43.3889 21.7609 44.0106V58.7015C21.7609 59.4268 22.0716 60.1105 22.5689 60.6078C23.0456 61.1051 23.7293 61.3952 24.4753 61.3952H41.1761C41.9221 61.3952 42.6058 61.1051 43.0825 60.6078C43.5796 60.1105 43.8905 59.4268 43.8905 58.7015V49.2116Z" fill="#C91493"/>
</g>
<defs>
<clipPath id="clip0_1_3">
<rect width="241" height="66" fill="white"/>
</clipPath>
</defs>
</svg>
