<svg width="160" height="160" viewBox="0 0 160 160" fill="none" xmlns="http://www.w3.org/2000/svg">
<g clip-path="url(#clip0_1_8)">
<path d="M51.9845 36.1306C51.9845 37.6956 50.6916 38.9884 49.1267 38.9884C47.5617 38.9884 46.3369 37.6956 46.3369 36.1306V12.4518C46.3369 8.98163 47.6978 5.91971 49.9432 3.6743C52.1886 1.4289 55.3185 0 58.7207 0H100.499C103.969 0 107.031 1.4289 109.276 3.6743C111.522 5.91971 112.951 8.98163 112.951 12.4518V46.337H146.836C150.238 46.337 153.368 47.6979 155.613 49.9433C157.859 52.1887 159.22 55.3187 159.22 58.7208V100.499C159.22 103.969 157.859 107.031 155.613 109.276C153.368 111.522 150.238 112.951 146.836 112.951C141.12 112.951 135.813 109.821 131.322 105.398C125.607 99.8186 121.116 91.9937 118.666 86.142C114.72 76.4119 112.338 71.0365 109.344 67.5663C106.555 64.3003 102.88 62.5992 96.2122 60.1497L81.0387 54.6382C79.5417 54.0939 78.453 53.8217 77.7046 53.7537C78.317 54.8424 79.7459 56.1352 81.8552 57.3599C87.0945 60.2858 91.5172 63.6199 95.2596 67.9746C98.9339 72.3293 101.928 77.5686 104.173 84.3729C105.398 88.1152 105.806 91.2452 105.466 93.2184C105.262 94.5112 104.786 95.4638 104.037 96.2123C103.016 97.1649 101.792 97.5732 100.363 97.2329C99.07 97.0288 97.7091 96.2123 96.2122 94.7154C94.6472 93.1504 93.4905 91.3132 92.3337 89.5441C90.9729 87.3668 89.612 85.3255 87.5708 84.9172L94.375 96.6206C98.5256 103.833 103.833 106.215 109.549 108.8C110.501 109.208 109.889 108.936 110.909 109.345C112.338 110.025 112.951 111.658 112.338 113.087C111.726 114.516 110.025 115.128 108.596 114.516L107.235 113.903C100.635 110.91 94.5111 108.188 89.4759 99.4783L80.7665 84.3729C80.7665 84.3729 80.6984 84.3048 80.6984 84.2368C80.018 82.8759 80.5624 81.1749 81.9232 80.4944C90.4285 76.2078 93.6266 81.1749 97.0967 86.4822C97.9813 87.8431 98.8658 89.2719 99.8865 90.3606C99.6823 89.2039 99.3421 87.775 98.7978 86.142C96.7565 80.0862 94.1709 75.3913 90.9729 71.6489C87.7068 67.8385 83.7604 64.9127 79.0654 62.259C75.3231 60.1497 72.9416 57.3599 72.1251 55.0465C71.7168 53.8217 71.6488 52.597 72.057 51.5083C72.4653 50.2155 73.3498 49.2629 74.7107 48.6505C76.5478 47.902 79.2696 47.9701 82.9439 49.3309L98.1174 54.8424C105.738 57.6321 110.025 59.7414 113.631 63.892C117.101 67.9066 119.619 73.6902 123.906 83.9646C126.083 89.2719 130.165 96.3484 135.269 101.384C138.807 104.854 142.753 107.303 146.836 107.303C148.673 107.303 150.374 106.555 151.599 105.33C152.824 104.105 153.572 102.404 153.572 100.499V58.7208C153.572 56.8837 152.824 55.1826 151.599 53.9578C150.374 52.733 148.673 51.9846 146.836 51.9846H110.093C108.528 51.9846 107.303 50.6918 107.303 49.1268V12.4518C107.303 10.5466 106.555 8.84554 105.33 7.62078C104.105 6.39601 102.404 5.64754 100.499 5.64754H58.7207C56.8835 5.64754 55.1825 6.39601 53.9577 7.62078C52.7329 8.84554 51.9845 10.5466 51.9845 12.4518V36.1306Z" fill="#007DC2"/>
<path d="M107.303 123.089C107.303 121.524 108.528 120.299 110.093 120.299C111.658 120.299 112.951 121.524 112.951 123.089V146.836C112.951 150.238 111.522 153.368 109.276 155.614C107.031 157.859 103.969 159.22 100.499 159.22H58.7208C55.3187 159.22 52.1887 157.859 49.9433 155.614C47.6979 153.368 46.337 150.238 46.337 146.836V112.951H12.4518C8.98163 112.951 5.91971 111.522 3.6743 109.276C1.4289 107.031 0 103.969 0 100.499V58.7208C0 55.3187 1.4289 52.1887 3.6743 49.9433C5.91971 47.6979 8.98163 46.337 12.4518 46.337C18.1674 46.337 23.4067 49.399 27.8975 53.8217C33.6131 59.4693 38.1719 67.2942 40.5534 73.1458C44.5679 82.8079 46.9494 88.2513 49.8753 91.6534C52.665 94.9195 56.3393 96.6206 63.0755 99.0701L78.181 104.65C79.746 105.194 80.8347 105.466 81.5151 105.466C80.9027 104.377 79.5418 103.085 77.4325 101.928C72.1932 98.934 67.7024 95.5999 64.0281 91.2452C60.2858 86.9585 57.3599 81.6512 55.1145 74.915C53.8898 71.1726 53.4815 68.0426 53.7537 66.0014C53.9578 64.7766 54.4341 63.756 55.1826 63.0075C56.2032 62.0549 57.428 61.7147 58.9249 61.9869C60.1497 62.259 61.5106 63.0755 63.0075 64.5725C64.5725 66.0694 65.7292 67.9066 66.8859 69.6757C68.3148 71.853 69.6757 73.9624 71.6489 74.3026L64.9127 62.5992C60.7621 55.4548 55.4548 53.0733 49.6711 50.4876C48.7185 50.0794 49.3309 50.3516 48.3103 49.8753C46.8814 49.2629 46.269 47.5618 46.8814 46.1329C47.5618 44.704 49.1948 44.0916 50.6237 44.704L51.9846 45.3164C58.5847 48.3103 64.7086 51.032 69.7437 59.8095L78.4532 74.8469C78.5212 74.915 78.5212 74.915 78.5212 74.983C79.2697 76.4119 78.7253 78.0449 77.2964 78.7934C68.8592 83.012 65.5931 78.0449 62.191 72.7376C61.3064 71.3767 60.3538 70.0159 59.4012 68.9272C59.5373 70.0159 59.8775 71.4448 60.4219 73.1458C62.4631 79.2016 65.0488 83.8285 68.3148 87.6389C71.5128 91.3813 75.4593 94.3071 80.1542 96.9608C83.8966 99.0701 86.3461 101.86 87.0946 104.173C87.5028 105.466 87.5709 106.623 87.2307 107.712C86.7544 109.004 85.8698 110.025 84.509 110.569C82.7399 111.318 79.9501 111.25 76.2758 109.889L61.1703 104.377C53.4815 101.588 49.1948 99.5464 45.5886 95.3277C42.1184 91.3132 39.6008 85.5296 35.3822 75.2552C33.1368 69.9478 29.1223 62.8714 23.951 57.8362C20.4128 54.3661 16.4663 51.9846 12.4518 51.9846C10.5466 51.9846 8.84554 52.733 7.62078 53.9578C6.39601 55.1826 5.64754 56.8837 5.64754 58.7208V100.499C5.64754 102.404 6.39601 104.105 7.62078 105.33C8.84554 106.555 10.5466 107.303 12.4518 107.303H49.1268C50.6918 107.303 51.9846 108.528 51.9846 110.093V146.836C51.9846 148.673 52.733 150.374 53.9578 151.599C55.1826 152.824 56.8837 153.572 58.7208 153.572H100.499C102.404 153.572 104.105 152.824 105.33 151.599C106.555 150.374 107.303 148.673 107.303 146.836V123.089Z" fill="#C91493"/>
</g>
<defs>
<clipPath id="clip0_1_8">
<rect width="159.22" height="159.22" fill="white"/>
</clipPath>
</defs>
</svg>
