<?xml version="1.0" encoding="utf-8"?><svg viewBox="0 0 22 22" xmlns="http://www.w3.org/2000/svg" xmlns:xlink="http://www.w3.org/1999/xlink"><style>:root>svg{display:none}:root>svg:target{display:block}</style><svg fill="none" viewBox="0 0 22 15" id="icon-arr-left" xmlns="http://www.w3.org/2000/svg"><path d="M22 7.5H1m0 0L7.192 14M1 7.5 7.192 1" stroke="currentColor"/></svg><svg fill="none" viewBox="0 0 22 15" id="icon-arr-right" xmlns="http://www.w3.org/2000/svg"><path d="M0 7.5h21m0 0L14.808 14M21 7.5 14.808 1" stroke="currentColor"/></svg><svg viewBox="0 0 14 14" id="icon-cross" xmlns="http://www.w3.org/2000/svg"><path fill-rule="evenodd" clip-rule="evenodd" d="m8.414 7 5.293-5.293A.999.999 0 1 0 12.293.293L7 5.586 1.707.293A.999.999 0 1 0 .293 1.707L5.586 7 .293 12.293a.999.999 0 1 0 1.414 1.414L7 8.414l5.293 5.293a.997.997 0 0 0 1.414 0 .999.999 0 0 0 0-1.414L8.414 7Z" fill="currentColor"/></svg><svg fill="none" viewBox="0 0 16 22" id="icon-up" xmlns="http://www.w3.org/2000/svg"><path d="M9.031.585a1.444 1.444 0 0 0-.477-.303 1.358 1.358 0 0 0-1.097 0c-.178.069-.34.172-.477.303L1.202 6.363a1.45 1.45 0 0 0 2.051 2.051l3.308-3.322v15.297a1.444 1.444 0 1 0 2.889 0V5.092l3.308 3.322a1.45 1.45 0 0 0 2.05-2.051L9.032.585Z" fill="currentColor"/></svg></svg>